<svg xmlns="http://www.w3.org/2000/svg" width="57" height="57" viewBox="0 0 57 57">
  <g id="Grupo_120316" data-name="Grupo 120316" transform="translate(-208 -5796)">
    <rect id="Rectángulo_37087" data-name="Rectángulo 37087" width="57" height="57" transform="translate(208 5796)" fill="#f6ec05"/>
    <path id="Trazado_173639" data-name="Trazado 173639" d="M19.216-5.578H9.352L7.629,0H-.062L10.89-29.859h6.768L28.69,0H20.959Zm-8.142-5.558h6.419l-3.22-10.356Zm23.748,4.43a3.934,3.934,0,0,1,2.728.974A3.2,3.2,0,0,1,38.637-3.24,3.2,3.2,0,0,1,37.55-.749a3.934,3.934,0,0,1-2.728.974,3.9,3.9,0,0,1-2.738-.984A3.219,3.219,0,0,1,31.008-3.24a3.219,3.219,0,0,1,1.077-2.481A3.9,3.9,0,0,1,34.822-6.706Z" transform="translate(217 5839)" fill="#5c22c3"/>
  </g>
</svg>
