<svg xmlns="http://www.w3.org/2000/svg" width="57" height="57" viewBox="0 0 57 57">
  <g id="Grupo_120318" data-name="Grupo 120318" transform="translate(-838 -5796)">
    <rect id="Rectángulo_37089" data-name="Rectángulo 37089" width="57" height="57" transform="translate(838 5796)" fill="#f6ec05"/>
    <path id="Trazado_173641" data-name="Trazado 173641" d="M26.414-10.11A10.9,10.9,0,0,1,24.732-4.6,10.149,10.149,0,0,1,20.416-.9,14.693,14.693,0,0,1,14.068.41,11.725,11.725,0,0,1,4.8-3.425Q1.415-7.26,1.415-14.253v-1.477a18.074,18.074,0,0,1,1.528-7.68,11.576,11.576,0,0,1,4.4-5.086,12.273,12.273,0,0,1,6.645-1.794,12.87,12.87,0,0,1,8.736,2.861,11.3,11.3,0,0,1,3.753,7.885H19.3a5.348,5.348,0,0,0-1.374-3.917,5.651,5.651,0,0,0-3.937-1.189,4.3,4.3,0,0,0-3.937,2.01Q8.8-20.631,8.736-16.222v2.112q0,4.778,1.2,6.829a4.39,4.39,0,0,0,4.132,2.051A5.527,5.527,0,0,0,17.862-6.4a4.961,4.961,0,0,0,1.395-3.712Zm7.362,3.4a3.934,3.934,0,0,1,2.728.974A3.2,3.2,0,0,1,37.591-3.24,3.2,3.2,0,0,1,36.5-.749a3.934,3.934,0,0,1-2.728.974,3.9,3.9,0,0,1-2.738-.984A3.219,3.219,0,0,1,29.962-3.24a3.219,3.219,0,0,1,1.077-2.481A3.9,3.9,0,0,1,33.776-6.706Z" transform="translate(847 5839)" fill="#5c22c3"/>
  </g>
</svg>
