<svg xmlns="http://www.w3.org/2000/svg" width="57" height="57" viewBox="0 0 57 57">
  <g id="Grupo_120319" data-name="Grupo 120319" transform="translate(-1153 -5796)">
    <path id="Trazado_173643" data-name="Trazado 173643" d="M0,0H57V57H0Z" transform="translate(1153 5796)" fill="#f6ec05"/>
    <path id="Trazado_173642" data-name="Trazado 173642" d="M2.256,0V-29.859h9.618a14.149,14.149,0,0,1,7.116,1.794A12.613,12.613,0,0,1,23.922-23a15.294,15.294,0,0,1,1.794,7.332v1.374a15.382,15.382,0,0,1-1.733,7.352A12.668,12.668,0,0,1,19.1-1.856,13.837,13.837,0,0,1,12.079,0Zm7.2-24.3V-5.537h2.5a5.6,5.6,0,0,0,4.758-2.2q1.661-2.2,1.661-6.552v-1.292q0-4.327-1.661-6.521a5.7,5.7,0,0,0-4.84-2.194Zm21.41,17.6a3.934,3.934,0,0,1,2.728.974A3.2,3.2,0,0,1,34.679-3.24,3.2,3.2,0,0,1,33.592-.749a3.934,3.934,0,0,1-2.728.974,3.9,3.9,0,0,1-2.738-.984A3.219,3.219,0,0,1,27.05-3.24a3.219,3.219,0,0,1,1.077-2.481A3.9,3.9,0,0,1,30.864-6.706Z" transform="translate(1162 5839)" fill="#5c22c3"/>
  </g>
</svg>
