<svg id="Grupo_120451" data-name="Grupo 120451" xmlns="http://www.w3.org/2000/svg" xmlns:xlink="http://www.w3.org/1999/xlink" width="208.568" height="181.483" viewBox="0 0 208.568 181.483">
  <defs>
    <linearGradient id="linear-gradient" x1="0.5" y1="0.495" x2="0.5" y2="0.026" gradientUnits="objectBoundingBox">
      <stop offset="0" stop-color="#0074ca"/>
      <stop offset="1" stop-color="#1d9cf0"/>
    </linearGradient>
  </defs>
  <path id="Trazado_173787" data-name="Trazado 173787" d="M2792.137,131.313,2776.46,121.1a10.475,10.475,0,0,0-11.432,0L2686.9,171.963a10.473,10.473,0,0,0,0,17.553l15.848,10.325a10.473,10.473,0,0,0,11.449-.01l77.961-50.977A10.474,10.474,0,0,0,2792.137,131.313Z" transform="translate(-2640.559 -20.056)" fill="#d9eeef"/>
  <ellipse id="Elipse_4789" data-name="Elipse 4789" cx="20.234" cy="12.699" rx="20.234" ry="12.699" transform="translate(168.1 139.084)" fill="#d9eeef"/>
  <g id="Grupo_120449" data-name="Grupo 120449">
    <g id="Grupo_120444" data-name="Grupo 120444">
      <path id="Trazado_173788" data-name="Trazado 173788" d="M2627.035,91.156v16.8a27.161,27.161,0,0,0,9.741,21.047c13.255,8.616,23.517,15.665,23.517,15.665l124.344-89.3a27.572,27.572,0,0,0,12.412-23.03l10.09-25.2s-14.958-9.629-21.979-14.458a27.374,27.374,0,0,0-30.868-.331l-114.87,75.8A27.57,27.57,0,0,0,2627.035,91.156Z" transform="translate(-2627.035 12.258)" fill="url(#linear-gradient)"/>
      <path id="Trazado_173789" data-name="Trazado 173789" d="M2648.8,141.421V126.955a14.449,14.449,0,0,0-6.456-12.035c-1.958-1.3-3.856-2.567-5.648-3.771a5.8,5.8,0,0,0-8.859,3.454,27.544,27.544,0,0,0-.8,6.6v16.8a27.161,27.161,0,0,0,9.741,21.047c13.255,8.616,23.517,15.665,23.517,15.665Z" transform="translate(-2627.035 -17.789)" fill="#0057a9"/>
      <path id="Trazado_173790" data-name="Trazado 173790" d="M2706.637,214.156l-20.33-13.169a2.872,2.872,0,0,1-1.311-2.41V179.708l21.046,1.951Z" transform="translate(-2641.261 -34.859)" fill="#0057a9"/>
      <path id="Trazado_173791" data-name="Trazado 173791" d="M2737.425,170.32l-21.646,41.029a1.534,1.534,0,0,1-2.891-.716V179.354Z" transform="translate(-2648.107 -32.554)" fill="#0087dc"/>
      <path id="Trazado_173792" data-name="Trazado 173792" d="M2655.88,110.118v16.8c0,21.949,24.4,35.1,42.732,23.03l114.87-75.619a27.573,27.573,0,0,0,12.411-23.03V34.323c0-21.962-24.426-35.109-42.757-23.013l-114.87,75.8A27.574,27.574,0,0,0,2655.88,110.118Z" transform="translate(-2634.115 7.603)" fill="#1d9cf0"/>
      <path id="Trazado_173793" data-name="Trazado 173793" d="M2657.931,126.922v-16.8a27.572,27.572,0,0,1,12.387-23.013l114.87-75.8a27.315,27.315,0,0,1,14.086-4.584,27.218,27.218,0,0,0-16.138,4.584l-114.87,75.8a27.574,27.574,0,0,0-12.386,23.013v16.8a27.611,27.611,0,0,0,28.672,27.6A27.591,27.591,0,0,1,2657.931,126.922Z" transform="translate(-2634.115 7.603)" fill="#66bcf5"/>
    </g>
    <path id="Trazado_173794" data-name="Trazado 173794" d="M2841.867,62.686a44.788,44.788,0,0,0-3.485-7.928,73.788,73.788,0,0,0,2.95-7.493,2.011,2.011,0,0,0-2.781-2.446c-1.57.758-3.214,1.673-4.874,2.689-.728-.946-1.469-1.837-2.211-2.647a2.013,2.013,0,0,0-3.385.7,74.9,74.9,0,0,0-2.155,7.308c-2.3,1.767-4.452,3.571-6.263,5.245a2.01,2.01,0,0,0,.514,3.291,28.489,28.489,0,0,0,4.029,1.495c-.3,2.733-.5,5.51-.645,8.413a2.009,2.009,0,0,0,3.524,1.416,70.2,70.2,0,0,0,5.884-7.98,52.063,52.063,0,0,0,6.991.543A2.006,2.006,0,0,0,2841.867,62.686Z" transform="translate(-2674.156 -1.601)" fill="#0057a9"/>
    <g id="Grupo_120445" data-name="Grupo 120445" transform="translate(45.741 109.348)">
      <path id="Trazado_173795" data-name="Trazado 173795" d="M2711.079,135.166s-1.674-1.576-1.728-1.622h0a1.976,1.976,0,0,0-2.168-.274c-1.57.758-3.213,1.673-4.874,2.689a11.625,11.625,0,0,1-.73-1.235s-1.744-1.661-1.889-1.754l0,0h0a2.014,2.014,0,0,0-2.974,1.04,75.11,75.11,0,0,0-2.156,7.308c-2.3,1.767-4.451,3.571-6.262,5.245a2.007,2.007,0,0,0,.134,3.054h0l1.661,1.44a14.041,14.041,0,0,1,2.75.291c-.3,2.733-.5,5.51-.645,8.413a1.959,1.959,0,0,0,.806,1.712l1.861,1.688Z" transform="translate(-2687.655 -132.659)" fill="#df8700"/>
      <path id="Trazado_173796" data-name="Trazado 173796" d="M2713.221,153.585a44.914,44.914,0,0,0-3.485-7.928,73.788,73.788,0,0,0,2.95-7.493,2.011,2.011,0,0,0-2.781-2.446c-1.57.758-3.214,1.673-4.874,2.689-.728-.946-1.469-1.837-2.211-2.647a2.013,2.013,0,0,0-3.385.7,75.173,75.173,0,0,0-2.156,7.308c-2.3,1.767-4.451,3.571-6.262,5.245a2.01,2.01,0,0,0,.514,3.291,28.51,28.51,0,0,0,4.028,1.495c-.3,2.733-.5,5.511-.645,8.413a2.009,2.009,0,0,0,3.525,1.415,70.225,70.225,0,0,0,5.884-7.98,52.2,52.2,0,0,0,6.991.543A2.006,2.006,0,0,0,2713.221,153.585Z" transform="translate(-2688.322 -133.26)" fill="#fdc648"/>
    </g>
    <g id="Grupo_120446" data-name="Grupo 120446" transform="translate(70.521 92.662)">
      <path id="Trazado_173797" data-name="Trazado 173797" d="M2743.919,113.053s-1.674-1.576-1.728-1.622h0a1.974,1.974,0,0,0-2.167-.274c-1.57.758-3.214,1.673-4.875,2.689a11.818,11.818,0,0,1-.729-1.235s-1.744-1.662-1.889-1.754l0,0h0a2.014,2.014,0,0,0-2.975,1.04,74.7,74.7,0,0,0-2.155,7.308c-2.3,1.766-4.452,3.571-6.263,5.245a2.006,2.006,0,0,0,.134,3.053v0l1.66,1.44a14.051,14.051,0,0,1,2.75.291c-.3,2.732-.5,5.51-.645,8.413a1.958,1.958,0,0,0,.807,1.711l1.86,1.689Z" transform="translate(-2720.495 -110.546)" fill="#df8700"/>
      <path id="Trazado_173798" data-name="Trazado 173798" d="M2746.062,131.472a44.77,44.77,0,0,0-3.485-7.928,73.739,73.739,0,0,0,2.95-7.494,2.01,2.01,0,0,0-2.781-2.445c-1.57.758-3.213,1.673-4.875,2.689-.727-.946-1.468-1.837-2.21-2.647a2.013,2.013,0,0,0-3.385.7,75.1,75.1,0,0,0-2.155,7.308c-2.3,1.766-4.452,3.571-6.263,5.245a2.01,2.01,0,0,0,.515,3.291,28.438,28.438,0,0,0,4.028,1.495c-.3,2.732-.5,5.51-.645,8.413a2.009,2.009,0,0,0,3.525,1.416,70.137,70.137,0,0,0,5.883-7.98,52.182,52.182,0,0,0,6.992.543A2.005,2.005,0,0,0,2746.062,131.472Z" transform="translate(-2721.163 -111.146)" fill="#fdc648"/>
    </g>
    <g id="Grupo_120447" data-name="Grupo 120447" transform="translate(95.301 75.977)">
      <path id="Trazado_173799" data-name="Trazado 173799" d="M2776.76,90.94s-1.674-1.576-1.728-1.622h0a1.976,1.976,0,0,0-2.168-.274c-1.57.759-3.214,1.674-4.874,2.689a11.625,11.625,0,0,1-.73-1.235s-1.744-1.661-1.889-1.754l0,0h0a2.013,2.013,0,0,0-2.974,1.04,74.709,74.709,0,0,0-2.156,7.308c-2.3,1.766-4.451,3.571-6.263,5.245a2.005,2.005,0,0,0,.134,3.053l0,0,1.661,1.44a13.98,13.98,0,0,1,2.75.291c-.3,2.732-.5,5.51-.645,8.413a1.959,1.959,0,0,0,.806,1.711l1.86,1.688Z" transform="translate(-2753.335 -88.433)" fill="#df8700"/>
      <path id="Trazado_173800" data-name="Trazado 173800" d="M2778.9,109.359a44.911,44.911,0,0,0-3.486-7.929,73.72,73.72,0,0,0,2.949-7.493,2.01,2.01,0,0,0-2.78-2.445c-1.57.758-3.214,1.673-4.874,2.688-.728-.945-1.469-1.837-2.211-2.646a2.012,2.012,0,0,0-3.384.7,75.048,75.048,0,0,0-2.156,7.308c-2.3,1.766-4.451,3.571-6.262,5.245a2.01,2.01,0,0,0,.514,3.291,28.492,28.492,0,0,0,4.028,1.495c-.3,2.732-.5,5.51-.645,8.413a2.009,2.009,0,0,0,3.524,1.416,70.331,70.331,0,0,0,5.884-7.98,52.175,52.175,0,0,0,6.991.543A2.006,2.006,0,0,0,2778.9,109.359Z" transform="translate(-2754.003 -89.033)" fill="#fdc648"/>
    </g>
    <g id="Grupo_120448" data-name="Grupo 120448" transform="translate(120.081 59.29)">
      <path id="Trazado_173801" data-name="Trazado 173801" d="M2809.6,68.826s-1.674-1.576-1.728-1.622h0a1.975,1.975,0,0,0-2.167-.274c-1.57.758-3.214,1.673-4.875,2.689a11.74,11.74,0,0,1-.729-1.235s-1.744-1.661-1.89-1.754l0,0h0a2.014,2.014,0,0,0-2.975,1.04,75.172,75.172,0,0,0-2.156,7.308c-2.3,1.767-4.451,3.571-6.262,5.246a2.006,2.006,0,0,0,.134,3.053h0l1.66,1.44a14.053,14.053,0,0,1,2.75.291c-.3,2.733-.5,5.511-.645,8.413a1.96,1.96,0,0,0,.807,1.711l1.86,1.688Z" transform="translate(-2786.176 -66.319)" fill="#df8700"/>
      <path id="Trazado_173802" data-name="Trazado 173802" d="M2811.742,87.246a44.775,44.775,0,0,0-3.485-7.929,73.732,73.732,0,0,0,2.95-7.493,2.011,2.011,0,0,0-2.781-2.446c-1.57.758-3.214,1.673-4.875,2.689-.728-.946-1.468-1.837-2.211-2.646a2.012,2.012,0,0,0-3.385.695,74.823,74.823,0,0,0-2.155,7.308c-2.3,1.767-4.452,3.571-6.263,5.246a2.01,2.01,0,0,0,.514,3.291,28.392,28.392,0,0,0,4.029,1.495c-.3,2.733-.5,5.511-.645,8.413a2.009,2.009,0,0,0,3.525,1.416,70.263,70.263,0,0,0,5.883-7.981,52.074,52.074,0,0,0,6.991.543A2.006,2.006,0,0,0,2811.742,87.246Z" transform="translate(-2786.843 -66.92)" fill="#fdc648"/>
    </g>
  </g>
  <path id="Trazado_173803" data-name="Trazado 173803" d="M2881.773,178.623c-3.158-.189-5.744-.243-5.664.809s5.583,3.237,7.525,2.59S2883.643,178.735,2881.773,178.623Z" transform="translate(-2688.167 -34.566)" fill="#2f4365"/>
  <path id="Trazado_173804" data-name="Trazado 173804" d="M2881.383,150.066c.287,14.883.309,21.28,2.251,22.656s6.782-13.012,6.821-23.385S2881.383,150.066,2881.383,150.066Z" transform="translate(-2689.462 -26.317)" fill="#e03342"/>
  <path id="Trazado_173805" data-name="Trazado 173805" d="M2872.227,186.232c-5.5.838-9.49,3.088-8.486,3.751s9.7.133,10.752-1.876S2872.227,186.232,2872.227,186.232Z" transform="translate(-2685.094 -36.459)" fill="#2f4365"/>
  <path id="Trazado_173806" data-name="Trazado 173806" d="M2871.177,153.318c.647,8.739,2.1,24.76,3.722,25.812s6.554-22.009,6.635-26.945S2871.177,153.318,2871.177,153.318Z" transform="translate(-2686.957 -27.629)" fill="#ef515d"/>
  <path id="Trazado_173807" data-name="Trazado 173807" d="M2874.671,118.717c-7.03,12.178-5.057,27.227-4.005,27.935s13.843.789,16.894-1.719c2.535-6.122,1.312-19.339-3.7-25.569S2874.671,118.717,2874.671,118.717Z" transform="translate(-2686.567 -19.324)" fill="#24396f"/>
  <path id="Trazado_173808" data-name="Trazado 173808" d="M2884.923,119.364c-5.017-6.23-9.184-.647-9.184-.647a33.775,33.775,0,0,0-1.8,3.615,6.454,6.454,0,0,0,1.016,1.258c1.934,1.79,7.277,2.753,11.066-2.659A14.916,14.916,0,0,0,2884.923,119.364Z" transform="translate(-2687.635 -19.324)" fill="#0a2b6b"/>
  <path id="Trazado_173809" data-name="Trazado 173809" d="M2874.241,89.91c-1.941-1.619-12.3-9.225-13.189-10.114s-1.213-2.347-2.427-3.56-3.156.809-2.265,2.022a4.98,4.98,0,0,0,1.861,1.619s8.253,13.528,11.085,14.531S2874.241,89.91,2874.241,89.91Z" transform="translate(-2683.265 -9.37)" fill="#e03342"/>
  <g id="Grupo_120450" data-name="Grupo 120450" transform="translate(155.604 50.267)">
    <path id="Trazado_173810" data-name="Trazado 173810" d="M2856.678,56.867s-1.673-1.576-1.729-1.622h0a1.975,1.975,0,0,0-2.167-.274c-1.57.759-3.214,1.674-4.874,2.689a11.669,11.669,0,0,1-.73-1.235s-1.744-1.661-1.889-1.754l0,0h0a2.013,2.013,0,0,0-2.974,1.04,74.777,74.777,0,0,0-2.156,7.308c-2.3,1.766-4.452,3.571-6.263,5.245a2.005,2.005,0,0,0,.134,3.053h0l1.66,1.441a13.993,13.993,0,0,1,2.75.291c-.3,2.732-.5,5.51-.646,8.413a1.96,1.96,0,0,0,.807,1.711l1.86,1.688Z" transform="translate(-2833.253 -54.36)" fill="#df8700"/>
    <path id="Trazado_173811" data-name="Trazado 173811" d="M2858.82,75.286a44.878,44.878,0,0,0-3.486-7.929,73.56,73.56,0,0,0,2.95-7.493,2.011,2.011,0,0,0-2.781-2.446c-1.57.759-3.214,1.674-4.874,2.689-.728-.946-1.469-1.837-2.212-2.646a2.012,2.012,0,0,0-3.384.7,74.98,74.98,0,0,0-2.156,7.308c-2.3,1.766-4.451,3.571-6.263,5.245A2.01,2.01,0,0,0,2837.13,74a28.373,28.373,0,0,0,4.028,1.5c-.3,2.732-.5,5.51-.645,8.413a2.009,2.009,0,0,0,3.525,1.416,70.206,70.206,0,0,0,5.884-7.98,52.187,52.187,0,0,0,6.992.543A2.006,2.006,0,0,0,2858.82,75.286Z" transform="translate(-2833.921 -54.96)" fill="#fdc648"/>
  </g>
  <path id="Trazado_173812" data-name="Trazado 173812" d="M2861.143,97.845c-3.56.89-6.068,3.091-6.392,2.759s-6.554-5.833-8.092-6.8c-1.294-2.346-2.022-2.67-3.074-2.75s-1.862,2.265,1.375,3.964c3.236,5.624,6.553,10.033,8.334,10.195a39.3,39.3,0,0,0,11.207-1.96C2867.212,102.133,2861.143,97.845,2861.143,97.845Z" transform="translate(-2679.957 -13.097)" fill="#ef515d"/>
  <path id="Trazado_173813" data-name="Trazado 173813" d="M2877.132,91.027c-4.046,1.861-10.966,5.388-12.155,6.925s.777,6.188,2.291,6.233a25.528,25.528,0,0,0,3.147-.143s1.3,7.876,3.686,10.376,10.636,3.39,12.821-12.469S2877.132,91.027,2877.132,91.027Z" transform="translate(-2685.346 -12.914)" fill="#4864e5"/>
  <path id="Trazado_173814" data-name="Trazado 173814" d="M2879.911,83.093c.4,4.244-1.248,7.076-.462,7.481s5.316,1.861,5.4-4.855S2879.911,83.093,2879.911,83.093Z" transform="translate(-2688.935 -10.842)" fill="#e03342"/>
  <path id="Trazado_173815" data-name="Trazado 173815" d="M2880.024,69.508c-3.8,1.871-6.147,13.429-1.333,14.853,6.723,1.989,6.711-6.1,6.368-9.259S2880.024,69.508,2880.024,69.508Z" transform="translate(-2688.137 -7.811)" fill="#ef515d"/>
  <path id="Trazado_173816" data-name="Trazado 173816" d="M2880.024,69.508c-3.8,1.871-6.147,13.429-1.333,14.853,6.723,1.989,6.711-6.1,6.368-9.259S2880.024,69.508,2880.024,69.508Z" transform="translate(-2688.137 -7.811)" fill="#ef515d"/>
  <path id="Trazado_173817" data-name="Trazado 173817" d="M2878.37,67.993c-3.315,2.393-1.2,5.087.607,6.624s-.293,5.993,1.893,9.091-3.837,7-3.7,11.924,6.492,9.216,12.5,1.772,5.278-14.4,1.071-19.1C2894.037,70.865,2885.376,62.936,2878.37,67.993Z" transform="translate(-2688.295 -7.048)" fill="#212f5f"/>
  <path id="Trazado_173818" data-name="Trazado 173818" d="M2874.176,104.655c-1.032-.184-1.259.269-7.469,2.37a1.648,1.648,0,0,0,1.075.675,25.53,25.53,0,0,0,3.147-.143s1.3,7.876,3.686,10.376a4.393,4.393,0,0,0,1.479.987C2872.612,115.708,2875.208,104.839,2874.176,104.655Z" transform="translate(-2685.86 -16.428)" fill="#3957e3"/>
</svg>
