<svg id="Grupo_78293" data-name="Grupo 78293" xmlns="http://www.w3.org/2000/svg" width="47.85" height="48" viewBox="0 0 47.85 48">
  <g id="Rectangle" transform="translate(0 48) rotate(-90)" fill="#64b5f6">
    <path d="M 24 47.3503532409668 C 20.82711029052734 47.3503532409668 17.74939918518066 46.73099517822266 14.85237979888916 45.50947570800781 C 12.054030418396 44.32956314086914 9.540780067443848 42.64034652709961 7.382440090179443 40.48872375488281 C 5.224199771881104 38.33721542358398 3.529809951782227 35.83199310302734 2.346319913864136 33.04264450073242 C 1.121189951896667 30.1551342010498 0.5 27.08758544921875 0.5 23.92517471313477 C 0.5 20.76276397705078 1.121189951896667 17.69521522521973 2.346319913864136 14.80771446228027 C 3.529809951782227 12.01835441589355 5.224199771881104 9.513134956359863 7.382440090179443 7.361624717712402 C 9.540780067443848 5.210014820098877 12.054030418396 3.520794630050659 14.85237979888916 2.340884685516357 C 17.74939918518066 1.119364738464355 20.82711029052734 0.5000047087669373 24 0.5000047087669373 C 27.17289924621582 0.5000047087669373 30.25060081481934 1.119364738464355 33.14762878417969 2.340884685516357 C 35.94596862792969 3.520794630050659 38.45922088623047 5.210014820098877 40.61756134033203 7.361624717712402 C 42.77579879760742 9.513134956359863 44.47018814086914 12.01835441589355 45.65367889404297 14.80770492553711 C 46.87881088256836 17.69521522521973 47.5 20.76276397705078 47.5 23.92517471313477 C 47.5 27.08758544921875 46.87881088256836 30.1551342010498 45.65367889404297 33.04264450073242 C 44.47018814086914 35.83199310302734 42.77579879760742 38.33721542358398 40.61756134033203 40.48872375488281 C 38.45922088623047 42.64034652709961 35.94596862792969 44.32956314086914 33.14762878417969 45.50947570800781 C 30.25060081481934 46.73099517822266 27.17288970947266 47.3503532409668 24 47.3503532409668 Z" stroke="none"/>
    <path d="M 24 0.9999961853027344 C 20.89418983459473 0.9999961853027344 17.88183975219727 1.606143951416016 15.04663848876953 2.801593780517578 C 12.3078498840332 3.956394195556641 9.847999572753906 5.609745025634766 7.735439300537109 7.715724945068359 C 5.623081207275391 9.821495056152344 3.964790344238281 12.27328491210938 2.806610107421875 15.00300598144531 C 1.607830047607422 17.82838439941406 1 20.83024406433105 1 23.92517471313477 C 1 27.02010536193848 1.607830047607422 30.0219554901123 2.806610107421875 32.84734344482422 C 3.964790344238281 35.57705688476562 5.623081207275391 38.02885437011719 7.735439300537109 40.13461303710938 C 9.847999572753906 42.24059295654297 12.3078498840332 43.89394378662109 15.04663848876953 45.04874420166016 C 17.88183975219727 46.24419403076172 20.89418983459473 46.85034561157227 24 46.85034561157227 C 27.10581016540527 46.85034561157227 30.11816024780273 46.24419403076172 32.95336151123047 45.04874420166016 C 35.6921501159668 43.89394378662109 38.15200042724609 42.24059295654297 40.26456069946289 40.13461303710938 C 42.37691879272461 38.02885437011719 44.03520965576172 35.57705688476562 45.19338989257812 32.84734344482422 C 46.39216995239258 30.0219554901123 47 27.02010536193848 47 23.92517471313477 C 47 20.83024406433105 46.39216995239258 17.82838439941406 45.19338989257812 15.00300598144531 C 44.03520965576172 12.27328491210938 42.37691879272461 9.821495056152344 40.26456069946289 7.715724945068359 C 38.15200042724609 5.609745025634766 35.6921501159668 3.956394195556641 32.95336151123047 2.801593780517578 C 30.11816024780273 1.606143951416016 27.10581016540527 0.9999961853027344 24 0.9999961853027344 M 24 -3.814697265625e-06 C 37.25484085083008 -3.814697265625e-06 48 10.71166610717773 48 23.92517471313477 C 48 37.1386833190918 37.25484085083008 47.85034561157227 24 47.85034561157227 C 10.74515914916992 47.85034561157227 0 37.1386833190918 0 23.92517471313477 C 0 10.71166610717773 10.74515914916992 -3.814697265625e-06 24 -3.814697265625e-06 Z" stroke="none" fill="#64b5f6"/>
  </g>
  <path id="Path" d="M0,1.5,1.625,0l6.35,6-6.35,6L0,10.5,4.785,6Z" transform="translate(27.913 30) rotate(-180)" fill="#fff" stroke="#64b5f6" stroke-width="1"/>
</svg>
