<svg xmlns="http://www.w3.org/2000/svg" width="1240" height="496" viewBox="0 0 1240 496">
  <g id="Grupo_120310" data-name="Grupo 120310" transform="translate(-180 -5177)">
    <rect id="Rectángulo_35888" data-name="Rectángulo 35888" width="1240" height="496" transform="translate(180 5177)" fill="#f6ec05" opacity="0.18"/>
    <g id="Grupo_119313" data-name="Grupo 119313" transform="translate(566.088 5193.295)">
      <g id="Figure" transform="translate(5.147 29.916)">
        <g id="Grupo_119307" data-name="Grupo 119307" transform="translate(0 112.476)">
          <path id="Trazado_170470" data-name="Trazado 170470" d="M46.31,234.969c-20.8,36.018-24.241,69.728-9.7,94.916s45.46,39.06,87.053,39.06h71.661c-13.852-6.591-28.423-17.533-37.763-35.679-18.64-36.2.512-68.683,1.335-70.048l5.971-10.155L240.2,122.592l-4.225-7.482c-1.859-2.583-26.156-35.33-60.216-35.33-33.92,0-51.4,21.176-57.4,30.406Z" transform="translate(-27.751 -79.781)" fill="#5c22c3"/>
        </g>
        <g id="Grupo_119308" data-name="Grupo 119308" transform="translate(131.628 207.392)">
          <path id="Trazado_170471" data-name="Trazado 170471" d="M372.322,182.133l-34.8-60.272c1.5,15.451.095,33.888-9.584,50.713-19.651,34.152-61.569,35.14-66.283,35.14l-.255,0-11.923.009H98.728l-4.559,7.753c-.729,1.22-17.079,29.251-1.038,60.405,18.956,36.82,64.519,40.091,66.852,40.231H294.965c41.593,0,72.509-13.872,87.053-39.06S393.116,218.151,372.322,182.133Z" transform="translate(-86.107 -121.861)" fill="#64b5f6"/>
        </g>
        <g id="Grupo_119309" data-name="Grupo 119309" transform="translate(107.823)">
          <path id="Trazado_170472" data-name="Trazado 170472" d="M263.283,85.774c-20.8-36.02-48.268-55.858-77.354-55.858s-56.557,19.838-77.354,55.858l-33.022,57.2c10.209-6,23.454-10.525,40.181-10.525,40.556,0,67.389,38.154,68.51,39.778l.239.383,4.157,7.362,1.6,2.725L265.6,313.22l9.128-.007h.183c1.647,0,40.509-.343,57.662-30.151,18.755-32.6,1.856-73.276.49-76.438Z" transform="translate(-75.553 -29.916)" fill="#ba68c8"/>
        </g>
      </g>
      <path id="Trazado_173605" data-name="Trazado 173605" d="M5.177,18.968h6.862V22H1.235V5.648H5.177ZM20.372,22a4.273,4.273,0,0,1-.359-1.089,3.519,3.519,0,0,1-2.92,1.314,4.311,4.311,0,0,1-2.92-1.039,3.307,3.307,0,0,1-1.2-2.611,3.4,3.4,0,0,1,1.46-2.987,7.438,7.438,0,0,1,4.245-1.011h1.168v-.643q0-1.681-1.449-1.681a1.184,1.184,0,0,0-1.348,1.332H13.263a3.393,3.393,0,0,1,1.5-2.86,6.3,6.3,0,0,1,3.824-1.1,5.524,5.524,0,0,1,3.672,1.134,3.944,3.944,0,0,1,1.381,3.111v5.379a5.509,5.509,0,0,0,.517,2.561V22ZM18,19.529a2.111,2.111,0,0,0,1.174-.3,1.9,1.9,0,0,0,.668-.685V16.6h-1.1q-1.977,0-1.977,1.774a1.083,1.083,0,0,0,.348.837A1.26,1.26,0,0,0,18,19.529ZM11.376,41.06h-6.2v3.908H12.5V48H1.235V31.648H12.522v3.043H5.177V38.14h6.2Zm8.917,3.526a.874.874,0,0,0-.505-.775,7.687,7.687,0,0,0-1.92-.606,8.757,8.757,0,0,1-2.336-.825,3.913,3.913,0,0,1-1.4-1.241,2.963,2.963,0,0,1-.483-1.673,3.359,3.359,0,0,1,1.381-2.757,5.69,5.69,0,0,1,3.616-1.084,6.3,6.3,0,0,1,3.863,1.089,3.407,3.407,0,0,1,1.46,2.864h-3.8q0-1.46-1.539-1.46a1.525,1.525,0,0,0-1,.331,1.026,1.026,0,0,0-.4.825.942.942,0,0,0,.494.82,4.669,4.669,0,0,0,1.578.517,13.635,13.635,0,0,1,1.9.483q2.74.943,2.74,3.38a3.182,3.182,0,0,1-1.477,2.707,6.476,6.476,0,0,1-3.824,1.044,6.609,6.609,0,0,1-2.785-.562,4.657,4.657,0,0,1-1.909-1.527,3.459,3.459,0,0,1-.685-2.033H16.8a1.463,1.463,0,0,0,.562,1.23,2.31,2.31,0,0,0,1.381.387,1.817,1.817,0,0,0,1.162-.314A1.006,1.006,0,0,0,20.293,44.586ZM30.12,32.828v3.021h2v2.628h-2v5.559a1.419,1.419,0,0,0,.247.955,1.325,1.325,0,0,0,.977.27,5.552,5.552,0,0,0,.943-.067V47.9a6.985,6.985,0,0,1-2.134.326,3.965,3.965,0,0,1-2.886-.921,3.775,3.775,0,0,1-.932-2.8V38.477h-1.55V35.849h1.55V32.828Zm10.837,6.446-1.247-.09a2.239,2.239,0,0,0-2.291,1.123V48H33.635V35.849h3.549l.124,1.561a2.931,2.931,0,0,1,2.662-1.786,3.691,3.691,0,0,1,1.056.135ZM48.83,48a4.273,4.273,0,0,1-.359-1.089,3.519,3.519,0,0,1-2.92,1.314,4.311,4.311,0,0,1-2.92-1.039,3.307,3.307,0,0,1-1.2-2.611,3.4,3.4,0,0,1,1.46-2.987,7.438,7.438,0,0,1,4.245-1.011H48.3v-.643q0-1.681-1.449-1.681a1.184,1.184,0,0,0-1.348,1.332H41.721a3.393,3.393,0,0,1,1.5-2.86,6.3,6.3,0,0,1,3.824-1.1,5.524,5.524,0,0,1,3.672,1.134A3.944,3.944,0,0,1,52.1,39.869v5.379a5.509,5.509,0,0,0,.517,2.561V48Zm-2.37-2.471a2.111,2.111,0,0,0,1.174-.3,1.9,1.9,0,0,0,.668-.685V42.6H47.2q-1.977,0-1.977,1.774a1.083,1.083,0,0,0,.348.837A1.26,1.26,0,0,0,46.46,45.529Zm12.14-12.7v3.021h2v2.628h-2v5.559a1.419,1.419,0,0,0,.247.955,1.325,1.325,0,0,0,.977.27,5.552,5.552,0,0,0,.943-.067V47.9a6.985,6.985,0,0,1-2.134.326,3.965,3.965,0,0,1-2.886-.921,3.775,3.775,0,0,1-.932-2.8V38.477h-1.55V35.849h1.55V32.828Zm9.366,15.4a6.246,6.246,0,0,1-4.526-1.668,5.759,5.759,0,0,1-1.729-4.341V41.9a7.462,7.462,0,0,1,.691-3.291A5.054,5.054,0,0,1,64.418,36.4a6.086,6.086,0,0,1,3.145-.781,5.26,5.26,0,0,1,4.043,1.589,6.245,6.245,0,0,1,1.482,4.43v1.471H65.563a2.728,2.728,0,0,0,.887,1.606,2.64,2.64,0,0,0,1.774.584,3.4,3.4,0,0,0,2.808-1.258l1.729,2.044a4.835,4.835,0,0,1-2,1.555A6.774,6.774,0,0,1,67.967,48.225Zm-.427-9.681q-1.662,0-1.977,2.2h3.818v-.292a1.875,1.875,0,0,0-.46-1.409A1.832,1.832,0,0,0,67.54,38.544Zm6.626,3.291a8.2,8.2,0,0,1,.606-3.257,4.882,4.882,0,0,1,1.741-2.184,4.589,4.589,0,0,1,2.639-.769,3.649,3.649,0,0,1,2.965,1.28l.135-1.056h3.437V47.54a5.123,5.123,0,0,1-.747,2.791A4.792,4.792,0,0,1,82.78,52.15a7.946,7.946,0,0,1-3.279.635,6.855,6.855,0,0,1-2.589-.505A4.673,4.673,0,0,1,75,50.965l1.583-2.224a3.47,3.47,0,0,0,2.785,1.247A2.254,2.254,0,0,0,81.881,47.4v-.382a3.554,3.554,0,0,1-2.751,1.2,4.392,4.392,0,0,1-3.594-1.7,7.049,7.049,0,0,1-1.37-4.554Zm3.8.236a4.323,4.323,0,0,0,.562,2.364,1.772,1.772,0,0,0,1.572.87,2.01,2.01,0,0,0,1.786-.82v-5.11a1.96,1.96,0,0,0-1.763-.831,1.783,1.783,0,0,0-1.583.9A4.93,4.93,0,0,0,77.962,42.07ZM91.832,48h-3.8V35.849h3.8ZM87.811,32.7a1.7,1.7,0,0,1,.584-1.333,2.471,2.471,0,0,1,3.032,0,1.814,1.814,0,0,1,0,2.667,2.471,2.471,0,0,1-3.032,0A1.7,1.7,0,0,1,87.811,32.7Zm13.2,15.3a4.273,4.273,0,0,1-.359-1.089,3.519,3.519,0,0,1-2.92,1.314,4.311,4.311,0,0,1-2.92-1.039,3.307,3.307,0,0,1-1.2-2.611,3.4,3.4,0,0,1,1.46-2.987,7.438,7.438,0,0,1,4.245-1.011h1.168v-.643q0-1.681-1.449-1.681a1.184,1.184,0,0,0-1.348,1.332H93.9a3.393,3.393,0,0,1,1.5-2.86,6.3,6.3,0,0,1,3.824-1.1,5.524,5.524,0,0,1,3.672,1.134,3.944,3.944,0,0,1,1.381,3.111v5.379a5.509,5.509,0,0,0,.517,2.561V48Zm-2.37-2.471a2.111,2.111,0,0,0,1.174-.3,1.9,1.9,0,0,0,.668-.685V42.6h-1.1q-1.977,0-1.977,1.774a1.083,1.083,0,0,0,.348.837A1.26,1.26,0,0,0,98.637,45.529ZM.584,67.834a7.423,7.423,0,0,1,1.247-4.548,4.1,4.1,0,0,1,3.481-1.662,3.49,3.49,0,0,1,2.74,1.28V56.75h3.8V74h-3.4l-.191-1.3A3.584,3.584,0,0,1,5.29,74.225a4.1,4.1,0,0,1-3.437-1.662A7.658,7.658,0,0,1,.584,67.834Zm3.785.236q0,3.234,1.887,3.234a1.863,1.863,0,0,0,1.8-1.056V65.622a1.813,1.813,0,0,0-1.774-1.078q-1.752,0-1.9,2.83Zm15.509,6.154a6.246,6.246,0,0,1-4.526-1.668,5.759,5.759,0,0,1-1.729-4.341V67.9a7.462,7.462,0,0,1,.691-3.291A5.054,5.054,0,0,1,16.329,62.4a6.086,6.086,0,0,1,3.145-.781,5.26,5.26,0,0,1,4.043,1.589A6.245,6.245,0,0,1,25,67.644v1.471H17.475a2.728,2.728,0,0,0,.887,1.606,2.64,2.64,0,0,0,1.774.584,3.4,3.4,0,0,0,2.808-1.258l1.729,2.044a4.835,4.835,0,0,1-2,1.555A6.774,6.774,0,0,1,19.878,74.225Zm-.427-9.681q-1.662,0-1.977,2.2h3.818v-.292a1.875,1.875,0,0,0-.46-1.409A1.832,1.832,0,0,0,19.451,64.544Zm21.405,5.11a1.62,1.62,0,0,0-.612-1.348,7.607,7.607,0,0,0-2.151-1,20.633,20.633,0,0,1-2.516-1Q32.4,64.746,32.4,62.017a3.847,3.847,0,0,1,.792-2.4A5.121,5.121,0,0,1,35.432,58a8.719,8.719,0,0,1,3.257-.578,7.627,7.627,0,0,1,3.161.629,5.005,5.005,0,0,1,2.173,1.791A4.678,4.678,0,0,1,44.8,62.5H40.868a1.977,1.977,0,0,0-.612-1.55A2.386,2.386,0,0,0,38.6,60.4a2.69,2.69,0,0,0-1.668.466,1.372,1.372,0,0,0,.062,2.325,8.5,8.5,0,0,0,2.37,1.056,14.516,14.516,0,0,1,2.785,1.174,4.68,4.68,0,0,1,2.65,4.211A3.993,3.993,0,0,1,43.181,73a7.193,7.193,0,0,1-4.436,1.224,8.8,8.8,0,0,1-3.6-.713,5.427,5.427,0,0,1-2.426-1.954,5.092,5.092,0,0,1-.814-2.858h3.953a2.508,2.508,0,0,0,.679,1.937,3.212,3.212,0,0,0,2.207.623,2.537,2.537,0,0,0,1.544-.421A1.39,1.39,0,0,0,40.856,69.654Zm11.668,4.571A6.246,6.246,0,0,1,48,72.557a5.759,5.759,0,0,1-1.729-4.341V67.9a7.462,7.462,0,0,1,.691-3.291A5.054,5.054,0,0,1,48.976,62.4a6.086,6.086,0,0,1,3.145-.781,5.26,5.26,0,0,1,4.043,1.589,6.245,6.245,0,0,1,1.482,4.43v1.471H50.122a2.728,2.728,0,0,0,.887,1.606,2.64,2.64,0,0,0,1.774.584,3.4,3.4,0,0,0,2.808-1.258l1.729,2.044a4.835,4.835,0,0,1-2,1.555A6.774,6.774,0,0,1,52.525,74.225ZM52.1,64.544q-1.662,0-1.977,2.2H53.94v-.292a1.875,1.875,0,0,0-.46-1.409A1.832,1.832,0,0,0,52.1,64.544Zm14.42.73-1.247-.09a2.239,2.239,0,0,0-2.291,1.123V74H59.2V61.849h3.549l.124,1.561a2.931,2.931,0,0,1,2.662-1.786,3.691,3.691,0,0,1,1.056.135ZM72.931,69.5l1.92-7.648h3.987L74.874,74H71.01L67.046,61.849h4ZM83.959,74h-3.8V61.849h3.8ZM79.938,58.7a1.7,1.7,0,0,1,.584-1.333,2.471,2.471,0,0,1,3.032,0,1.814,1.814,0,0,1,0,2.667,2.471,2.471,0,0,1-3.032,0A1.7,1.7,0,0,1,79.938,58.7ZM91.427,71.3a1.683,1.683,0,0,0,1.235-.432,1.586,1.586,0,0,0,.427-1.207h3.549a4.2,4.2,0,0,1-1.432,3.279,5.326,5.326,0,0,1-3.689,1.28,5.393,5.393,0,0,1-4.178-1.662,6.549,6.549,0,0,1-1.527-4.6V67.8a7.4,7.4,0,0,1,.679-3.251,4.947,4.947,0,0,1,1.96-2.167,5.843,5.843,0,0,1,3.032-.758,5.259,5.259,0,0,1,3.762,1.314,4.66,4.66,0,0,1,1.393,3.56H93.089a2.077,2.077,0,0,0-.46-1.449,1.589,1.589,0,0,0-1.235-.505q-1.471,0-1.718,1.875a13.234,13.234,0,0,0-.079,1.64,5.2,5.2,0,0,0,.438,2.538A1.516,1.516,0,0,0,91.427,71.3Zm10.8,2.7h-3.8V61.849h3.8ZM98.21,58.7a1.7,1.7,0,0,1,.584-1.333,2.471,2.471,0,0,1,3.032,0,1.814,1.814,0,0,1,0,2.667,2.471,2.471,0,0,1-3.032,0A1.7,1.7,0,0,1,98.21,58.7Zm5.874,9.108a7.172,7.172,0,0,1,.708-3.24,5.06,5.06,0,0,1,2.033-2.184,6.122,6.122,0,0,1,3.111-.764,5.587,5.587,0,0,1,4.3,1.69,6.486,6.486,0,0,1,1.572,4.6v.135a6.293,6.293,0,0,1-1.578,4.509,5.6,5.6,0,0,1-4.273,1.668,5.666,5.666,0,0,1-4.167-1.555,6.084,6.084,0,0,1-1.7-4.217Zm3.785.236a4.521,4.521,0,0,0,.528,2.471,1.758,1.758,0,0,0,1.561.786q2.021,0,2.066-3.111v-.382q0-3.268-2.089-3.268-1.9,0-2.055,2.819Z" transform="translate(227.492 108.053)" fill="#fff"/>
      <path id="Trazado_173609" data-name="Trazado 173609" d="M5.177,18.968h6.862V22H1.235V5.648H5.177Zm7.873-3.156a7.172,7.172,0,0,1,.708-3.24,5.06,5.06,0,0,1,2.033-2.184A6.122,6.122,0,0,1,18.9,9.624a5.587,5.587,0,0,1,4.3,1.69,6.486,6.486,0,0,1,1.572,4.6v.135A6.293,6.293,0,0,1,23.2,20.557a5.6,5.6,0,0,1-4.273,1.668,5.666,5.666,0,0,1-4.167-1.555,6.084,6.084,0,0,1-1.7-4.217Zm3.785.236a4.521,4.521,0,0,0,.528,2.471,1.758,1.758,0,0,0,1.561.786q2.021,0,2.066-3.111v-.382q0-3.268-2.089-3.268-1.9,0-2.055,2.819ZM32.8,18.586a.874.874,0,0,0-.505-.775,7.687,7.687,0,0,0-1.92-.606,8.757,8.757,0,0,1-2.336-.825,3.913,3.913,0,0,1-1.4-1.241,2.963,2.963,0,0,1-.483-1.673,3.359,3.359,0,0,1,1.381-2.757,5.69,5.69,0,0,1,3.616-1.084,6.3,6.3,0,0,1,3.863,1.089,3.407,3.407,0,0,1,1.46,2.864h-3.8q0-1.46-1.539-1.46a1.525,1.525,0,0,0-1,.331,1.026,1.026,0,0,0-.4.825.942.942,0,0,0,.494.82,4.669,4.669,0,0,0,1.578.517,13.635,13.635,0,0,1,1.9.483q2.74.943,2.74,3.38a3.182,3.182,0,0,1-1.477,2.707,6.476,6.476,0,0,1-3.824,1.044,6.609,6.609,0,0,1-2.785-.562,4.657,4.657,0,0,1-1.909-1.527,3.459,3.459,0,0,1-.685-2.033h3.538a1.463,1.463,0,0,0,.562,1.23,2.31,2.31,0,0,0,1.381.387,1.817,1.817,0,0,0,1.162-.314A1.006,1.006,0,0,0,32.8,18.586ZM14.465,42.463a5.972,5.972,0,0,1-.921,3.015,5.558,5.558,0,0,1-2.364,2.027,8.046,8.046,0,0,1-3.476.719,6.421,6.421,0,0,1-5.076-2.1,8.671,8.671,0,0,1-1.853-5.93v-.809a9.9,9.9,0,0,1,.837-4.206A6.339,6.339,0,0,1,4.021,32.4a6.721,6.721,0,0,1,3.639-.983,7.048,7.048,0,0,1,4.784,1.567A6.19,6.19,0,0,1,14.5,37.3H10.568a2.929,2.929,0,0,0-.752-2.145A3.1,3.1,0,0,0,7.659,34.5,2.355,2.355,0,0,0,5.5,35.6a7.074,7.074,0,0,0-.719,3.515v1.157a7.827,7.827,0,0,0,.657,3.74A2.4,2.4,0,0,0,7.7,45.136a3.027,3.027,0,0,0,2.078-.64,2.717,2.717,0,0,0,.764-2.033Zm1.213-.651a7.172,7.172,0,0,1,.708-3.24,5.06,5.06,0,0,1,2.033-2.184,6.122,6.122,0,0,1,3.111-.764,5.587,5.587,0,0,1,4.3,1.69,6.486,6.486,0,0,1,1.572,4.6v.135a6.293,6.293,0,0,1-1.578,4.509,5.6,5.6,0,0,1-4.273,1.668,5.666,5.666,0,0,1-4.167-1.555,6.084,6.084,0,0,1-1.7-4.217Zm3.785.236a4.521,4.521,0,0,0,.528,2.471,1.758,1.758,0,0,0,1.561.786q2.021,0,2.066-3.111v-.382q0-3.268-2.089-3.268-1.9,0-2.055,2.819ZM33.063,48h-3.8V30.75h3.8Zm9.175,0a4.273,4.273,0,0,1-.359-1.089,3.519,3.519,0,0,1-2.92,1.314,4.311,4.311,0,0,1-2.92-1.039,3.307,3.307,0,0,1-1.2-2.611,3.4,3.4,0,0,1,1.46-2.987,7.438,7.438,0,0,1,4.245-1.011H41.71v-.643q0-1.681-1.449-1.681a1.184,1.184,0,0,0-1.348,1.332H35.129a3.393,3.393,0,0,1,1.5-2.86,6.3,6.3,0,0,1,3.824-1.1,5.524,5.524,0,0,1,3.672,1.134,3.944,3.944,0,0,1,1.381,3.111v5.379a5.509,5.509,0,0,0,.517,2.561V48Zm-2.37-2.471a2.111,2.111,0,0,0,1.174-.3,1.9,1.9,0,0,0,.668-.685V42.6h-1.1q-1.977,0-1.977,1.774a1.083,1.083,0,0,0,.348.837A1.26,1.26,0,0,0,39.868,45.529Zm19.013-3.5a7.406,7.406,0,0,1-1.235,4.593,4.138,4.138,0,0,1-3.481,1.606,3.591,3.591,0,0,1-2.987-1.471L51.02,48H47.628V30.75h3.785v6.076a3.464,3.464,0,0,1,2.729-1.2,4.139,4.139,0,0,1,3.5,1.628,7.444,7.444,0,0,1,1.235,4.582Zm-3.8-.241a4.94,4.94,0,0,0-.466-2.495,1.571,1.571,0,0,0-1.432-.746,1.812,1.812,0,0,0-1.774.975V44.34a1.822,1.822,0,0,0,1.8.964,1.607,1.607,0,0,0,1.7-1.3A9.339,9.339,0,0,0,55.085,41.784Zm4.986.028a7.172,7.172,0,0,1,.708-3.24,5.06,5.06,0,0,1,2.033-2.184,6.122,6.122,0,0,1,3.111-.764,5.587,5.587,0,0,1,4.3,1.69,6.486,6.486,0,0,1,1.572,4.6v.135a6.293,6.293,0,0,1-1.578,4.509,5.6,5.6,0,0,1-4.273,1.668,5.666,5.666,0,0,1-4.167-1.555,6.084,6.084,0,0,1-1.7-4.217Zm3.785.236a4.521,4.521,0,0,0,.528,2.471,1.758,1.758,0,0,0,1.561.786q2.021,0,2.066-3.111v-.382q0-3.268-2.089-3.268-1.9,0-2.055,2.819Zm16.958-2.774-1.247-.09a2.239,2.239,0,0,0-2.291,1.123V48H73.492V35.849h3.549l.124,1.561a2.931,2.931,0,0,1,2.662-1.786,3.691,3.691,0,0,1,1.056.135ZM88.687,48a4.273,4.273,0,0,1-.359-1.089,3.519,3.519,0,0,1-2.92,1.314,4.311,4.311,0,0,1-2.92-1.039,3.307,3.307,0,0,1-1.2-2.611,3.4,3.4,0,0,1,1.46-2.987,7.438,7.438,0,0,1,4.245-1.011h1.168v-.643q0-1.681-1.449-1.681a1.184,1.184,0,0,0-1.348,1.332H81.578a3.393,3.393,0,0,1,1.5-2.86,6.3,6.3,0,0,1,3.824-1.1,5.524,5.524,0,0,1,3.672,1.134,3.944,3.944,0,0,1,1.381,3.111v5.379a5.509,5.509,0,0,0,.517,2.561V48Zm-2.37-2.471a2.111,2.111,0,0,0,1.174-.3,1.9,1.9,0,0,0,.668-.685V42.6h-1.1q-1.977,0-1.977,1.774a1.083,1.083,0,0,0,.348.837A1.26,1.26,0,0,0,86.317,45.529Zm7.255-3.695a7.423,7.423,0,0,1,1.247-4.548A4.1,4.1,0,0,1,98.3,35.624a3.49,3.49,0,0,1,2.74,1.28V30.75h3.8V48h-3.4l-.191-1.3a3.584,3.584,0,0,1-2.965,1.527,4.1,4.1,0,0,1-3.437-1.662A7.658,7.658,0,0,1,93.572,41.834Zm3.785.236q0,3.234,1.887,3.234a1.863,1.863,0,0,0,1.8-1.056V39.622a1.813,1.813,0,0,0-1.774-1.078q-1.752,0-1.9,2.83Zm9.153-.258a7.172,7.172,0,0,1,.708-3.24,5.06,5.06,0,0,1,2.033-2.184,6.122,6.122,0,0,1,3.111-.764,5.587,5.587,0,0,1,4.3,1.69,6.486,6.486,0,0,1,1.572,4.6v.135a6.293,6.293,0,0,1-1.578,4.509,5.6,5.6,0,0,1-4.273,1.668,5.666,5.666,0,0,1-4.167-1.555,6.084,6.084,0,0,1-1.7-4.217Zm3.785.236a4.521,4.521,0,0,0,.528,2.471,1.758,1.758,0,0,0,1.561.786q2.021,0,2.066-3.111v-.382q0-3.268-2.089-3.268-1.9,0-2.055,2.819Zm16.958-2.774-1.247-.09a2.239,2.239,0,0,0-2.291,1.123V48H119.93V35.849h3.549l.124,1.561a2.931,2.931,0,0,1,2.662-1.786,3.691,3.691,0,0,1,1.056.135Zm7.03,8.951a6.246,6.246,0,0,1-4.526-1.668,5.759,5.759,0,0,1-1.729-4.341V41.9a7.462,7.462,0,0,1,.691-3.291,5.054,5.054,0,0,1,2.016-2.207,6.086,6.086,0,0,1,3.145-.781,5.26,5.26,0,0,1,4.043,1.589,6.245,6.245,0,0,1,1.482,4.43v1.471h-7.524a2.728,2.728,0,0,0,.887,1.606,2.64,2.64,0,0,0,1.774.584,3.4,3.4,0,0,0,2.808-1.258l1.729,2.044a4.835,4.835,0,0,1-2,1.555A6.774,6.774,0,0,1,134.283,48.225Zm-.427-9.681q-1.662,0-1.977,2.2H135.7v-.292a1.875,1.875,0,0,0-.46-1.409A1.832,1.832,0,0,0,133.856,38.544Zm13.432,6.042a.874.874,0,0,0-.505-.775,7.687,7.687,0,0,0-1.92-.606,8.757,8.757,0,0,1-2.336-.825,3.913,3.913,0,0,1-1.4-1.241,2.963,2.963,0,0,1-.483-1.673,3.359,3.359,0,0,1,1.381-2.757,5.69,5.69,0,0,1,3.616-1.084,6.3,6.3,0,0,1,3.863,1.089,3.407,3.407,0,0,1,1.46,2.864h-3.8q0-1.46-1.539-1.46a1.525,1.525,0,0,0-1,.331,1.026,1.026,0,0,0-.4.825.942.942,0,0,0,.494.82,4.669,4.669,0,0,0,1.578.517,13.636,13.636,0,0,1,1.9.483q2.74.943,2.74,3.38a3.182,3.182,0,0,1-1.477,2.707,6.476,6.476,0,0,1-3.824,1.044,6.609,6.609,0,0,1-2.785-.562,4.657,4.657,0,0,1-1.909-1.527,3.459,3.459,0,0,1-.685-2.033h3.538a1.463,1.463,0,0,0,.562,1.23,2.31,2.31,0,0,0,1.381.387,1.817,1.817,0,0,0,1.162-.314A1.006,1.006,0,0,0,147.288,44.586Z" transform="translate(255.167 354.164)" fill="#fff"/>
      <path id="Trazado_173606" data-name="Trazado 173606" d="M5.177-3.032h6.862V0H1.235V-16.352H5.177ZM13.05-6.188a7.172,7.172,0,0,1,.708-3.24,5.06,5.06,0,0,1,2.033-2.184,6.122,6.122,0,0,1,3.111-.764,5.587,5.587,0,0,1,4.3,1.69,6.486,6.486,0,0,1,1.572,4.6v.135A6.293,6.293,0,0,1,23.2-1.443,5.6,5.6,0,0,1,18.923.225a5.666,5.666,0,0,1-4.167-1.555,6.084,6.084,0,0,1-1.7-4.217Zm3.785.236a4.521,4.521,0,0,0,.528,2.471,1.758,1.758,0,0,0,1.561.786q2.021,0,2.066-3.111v-.382q0-3.268-2.089-3.268-1.9,0-2.055,2.819ZM32.8-3.414a.874.874,0,0,0-.505-.775,7.687,7.687,0,0,0-1.92-.606,8.757,8.757,0,0,1-2.336-.825,3.913,3.913,0,0,1-1.4-1.241,2.963,2.963,0,0,1-.483-1.673,3.359,3.359,0,0,1,1.381-2.757,5.69,5.69,0,0,1,3.616-1.084,6.3,6.3,0,0,1,3.863,1.089,3.407,3.407,0,0,1,1.46,2.864h-3.8q0-1.46-1.539-1.46a1.525,1.525,0,0,0-1,.331,1.026,1.026,0,0,0-.4.825.942.942,0,0,0,.494.82,4.669,4.669,0,0,0,1.578.517,13.635,13.635,0,0,1,1.9.483q2.74.943,2.74,3.38A3.182,3.182,0,0,1,34.977-.82,6.476,6.476,0,0,1,31.153.225a6.609,6.609,0,0,1-2.785-.562,4.657,4.657,0,0,1-1.909-1.527A3.459,3.459,0,0,1,25.774-3.9h3.538a1.463,1.463,0,0,0,.562,1.23,2.31,2.31,0,0,0,1.381.387,1.817,1.817,0,0,0,1.162-.314A1.006,1.006,0,0,0,32.8-3.414Z" transform="translate(41.577 304.87)" fill="#fff"/>
      <path id="Trazado_173607" data-name="Trazado 173607" d="M9.669-4.346a1.62,1.62,0,0,0-.612-1.348,7.607,7.607,0,0,0-2.151-1,20.633,20.633,0,0,1-2.516-1q-3.178-1.561-3.178-4.29A3.847,3.847,0,0,1,2-14.381,5.121,5.121,0,0,1,4.245-16,8.719,8.719,0,0,1,7.5-16.576a7.627,7.627,0,0,1,3.161.629,5.005,5.005,0,0,1,2.173,1.791,4.678,4.678,0,0,1,.775,2.656H9.681a1.977,1.977,0,0,0-.612-1.55,2.386,2.386,0,0,0-1.656-.55,2.69,2.69,0,0,0-1.668.466,1.43,1.43,0,0,0-.612,1.185,1.44,1.44,0,0,0,.674,1.14,8.5,8.5,0,0,0,2.37,1.056A14.516,14.516,0,0,1,10.961-8.58a4.68,4.68,0,0,1,2.65,4.211A3.993,3.993,0,0,1,11.994-1,7.193,7.193,0,0,1,7.558.225a8.8,8.8,0,0,1-3.6-.713A5.427,5.427,0,0,1,1.533-2.443,5.092,5.092,0,0,1,.719-5.3H4.672a2.508,2.508,0,0,0,.679,1.937,3.212,3.212,0,0,0,2.207.623A2.537,2.537,0,0,0,9.1-3.161,1.39,1.39,0,0,0,9.669-4.346ZM19.451,0h-3.8V-12.151h3.8ZM15.431-15.3a1.7,1.7,0,0,1,.584-1.333,2.2,2.2,0,0,1,1.516-.52,2.2,2.2,0,0,1,1.516.52,1.7,1.7,0,0,1,.584,1.333,1.7,1.7,0,0,1-.584,1.333,2.2,2.2,0,0,1-1.516.52,2.2,2.2,0,0,1-1.516-.52A1.7,1.7,0,0,1,15.431-15.3ZM28.144-3.414a.874.874,0,0,0-.505-.775,7.687,7.687,0,0,0-1.92-.606,8.757,8.757,0,0,1-2.336-.825,3.913,3.913,0,0,1-1.4-1.241A2.963,2.963,0,0,1,21.5-8.535a3.359,3.359,0,0,1,1.381-2.757,5.69,5.69,0,0,1,3.616-1.084,6.3,6.3,0,0,1,3.863,1.089,3.407,3.407,0,0,1,1.46,2.864h-3.8q0-1.46-1.539-1.46a1.525,1.525,0,0,0-1,.331,1.026,1.026,0,0,0-.4.825.942.942,0,0,0,.494.82,4.669,4.669,0,0,0,1.578.517,13.635,13.635,0,0,1,1.9.483q2.74.943,2.74,3.38A3.182,3.182,0,0,1,30.317-.82,6.476,6.476,0,0,1,26.493.225a6.609,6.609,0,0,1-2.785-.562A4.657,4.657,0,0,1,21.8-1.864,3.459,3.459,0,0,1,21.113-3.9h3.538a1.463,1.463,0,0,0,.562,1.23,2.31,2.31,0,0,0,1.381.387,1.817,1.817,0,0,0,1.162-.314A1.006,1.006,0,0,0,28.144-3.414ZM37.97-15.172v3.021h2v2.628h-2v5.559a1.419,1.419,0,0,0,.247.955,1.325,1.325,0,0,0,.977.27,5.552,5.552,0,0,0,.943-.067V-.1A6.985,6.985,0,0,1,38,.225,3.965,3.965,0,0,1,35.118-.7a3.775,3.775,0,0,1-.932-2.8V-9.523h-1.55v-2.628h1.55v-3.021ZM47.336.225a6.246,6.246,0,0,1-4.526-1.668,5.759,5.759,0,0,1-1.729-4.341V-6.1a7.462,7.462,0,0,1,.691-3.291A5.054,5.054,0,0,1,43.788-11.6a6.086,6.086,0,0,1,3.145-.781,5.26,5.26,0,0,1,4.043,1.589,6.245,6.245,0,0,1,1.482,4.43v1.471H44.933a2.728,2.728,0,0,0,.887,1.606,2.64,2.64,0,0,0,1.774.584A3.4,3.4,0,0,0,50.4-3.953l1.729,2.044a4.835,4.835,0,0,1-2,1.555A6.774,6.774,0,0,1,47.336.225ZM46.91-9.456q-1.662,0-1.977,2.2h3.818v-.292a1.875,1.875,0,0,0-.46-1.409A1.832,1.832,0,0,0,46.91-9.456Zm10.646-2.7.124,1.426a4.178,4.178,0,0,1,3.47-1.651,3.076,3.076,0,0,1,3.111,1.831,4.044,4.044,0,0,1,3.571-1.831q3.695,0,3.8,4.47V0h-3.8V-7.67a2.317,2.317,0,0,0-.314-1.359,1.339,1.339,0,0,0-1.146-.427,1.793,1.793,0,0,0-1.673,1l.011.157V0h-3.8V-7.648a2.435,2.435,0,0,0-.3-1.381,1.335,1.335,0,0,0-1.157-.427,1.815,1.815,0,0,0-1.662,1V0H54.007V-12.151ZM80.635,0a4.273,4.273,0,0,1-.359-1.089A3.519,3.519,0,0,1,77.355.225a4.311,4.311,0,0,1-2.92-1.039,3.307,3.307,0,0,1-1.2-2.611,3.4,3.4,0,0,1,1.46-2.987,7.438,7.438,0,0,1,4.245-1.011h1.168v-.643q0-1.681-1.449-1.681a1.184,1.184,0,0,0-1.348,1.332H73.526a3.393,3.393,0,0,1,1.5-2.86,6.3,6.3,0,0,1,3.824-1.1,5.524,5.524,0,0,1,3.672,1.134A3.944,3.944,0,0,1,83.9-8.131v5.379a5.509,5.509,0,0,0,.517,2.561V0Zm-2.37-2.471a2.111,2.111,0,0,0,1.174-.3,1.9,1.9,0,0,0,.668-.685V-5.4h-1.1q-1.977,0-1.977,1.774a1.083,1.083,0,0,0,.348.837A1.26,1.26,0,0,0,78.265-2.471Zm14.094-.943a.874.874,0,0,0-.505-.775,7.687,7.687,0,0,0-1.92-.606A8.757,8.757,0,0,1,87.6-5.621a3.913,3.913,0,0,1-1.4-1.241,2.963,2.963,0,0,1-.483-1.673,3.359,3.359,0,0,1,1.381-2.757,5.69,5.69,0,0,1,3.616-1.084,6.3,6.3,0,0,1,3.863,1.089,3.407,3.407,0,0,1,1.46,2.864h-3.8q0-1.46-1.539-1.46a1.525,1.525,0,0,0-1,.331,1.026,1.026,0,0,0-.4.825.942.942,0,0,0,.494.82,4.669,4.669,0,0,0,1.578.517,13.635,13.635,0,0,1,1.9.483q2.74.943,2.74,3.38A3.182,3.182,0,0,1,94.532-.82,6.476,6.476,0,0,1,90.708.225a6.609,6.609,0,0,1-2.785-.562,4.657,4.657,0,0,1-1.909-1.527A3.459,3.459,0,0,1,85.329-3.9h3.538a1.463,1.463,0,0,0,.562,1.23,2.31,2.31,0,0,0,1.381.387,1.817,1.817,0,0,0,1.162-.314A1.006,1.006,0,0,0,92.359-3.414Z" transform="translate(29.895 326.524)" fill="#fff"/>
      <g id="Icons" transform="translate(88.006 211.981)">
        <g id="Bulb" transform="translate(212.581 5.701)">
          <g id="Grupo_119310" data-name="Grupo 119310">
            <path id="Bulb-2" data-name="Bulb" d="M192.705,171.871a2.114,2.114,0,0,1-2.116,2.114H177.766a2.115,2.115,0,0,1-2.116-2.114h0a2.116,2.116,0,0,1,2.116-2.116h12.823a2.114,2.114,0,0,1,2.116,2.116Zm0-5.533a2.116,2.116,0,0,0-2.116-2.116H177.766a2.117,2.117,0,0,0-2.116,2.116h0a2.117,2.117,0,0,0,2.116,2.116h12.823a2.116,2.116,0,0,0,2.116-2.116Zm-6.5-23.21h-4.044v19.838h2.116c0,.018,0-.018,0,0H186.2Zm-9.086-8.091a3.051,3.051,0,0,0,0,6.1h3.054v-3.05A3.056,3.056,0,0,0,177.117,135.037Zm17.174,3.052a3.051,3.051,0,1,0-6.1,0v3.05h3.05A3.055,3.055,0,0,0,194.291,138.089Zm6.722-5.522c-1.371-5.409-7.836-11.262-16.836-11.271-9,.009-15.46,5.862-16.834,11.271-1.047,4.116-.09,8.019,1.881,11.817,1.782,3.438,3.634,6.259,5.17,9.776a38.494,38.494,0,0,1,1.617,6.631c.356,1.611.972,2.156,2.93,2.17.411,0,.819,0,1.229,0V143.128h-3.054a5.04,5.04,0,1,1,5.041-5.1h0v3.113H186.2v-3.113h0a5.037,5.037,0,1,1,5.037,5.1h-3.05v19.838c.408,0,.817,0,1.225,0,1.958-.014,2.574-.559,2.932-2.17a38.7,38.7,0,0,1,1.615-6.631c1.538-3.517,3.388-6.338,5.17-9.776C201.1,140.586,202.059,136.684,201.012,132.567ZM186.028,115.01a1.85,1.85,0,0,0-1.852-1.85h0a1.849,1.849,0,0,0-1.847,1.85v3.42a1.849,1.849,0,0,0,1.847,1.85h0a1.85,1.85,0,0,0,1.852-1.85Zm10.27,3.023a1.848,1.848,0,0,0-.744-2.506h0a1.852,1.852,0,0,0-2.508.744l-1.629,3.007a1.85,1.85,0,0,0,.744,2.508h0a1.845,1.845,0,0,0,2.506-.747Zm7.572,5.977a1.849,1.849,0,0,0,.156-2.61h0a1.847,1.847,0,0,0-2.612-.153l-2.556,2.269a1.849,1.849,0,0,0-.156,2.612h0a1.851,1.851,0,0,0,2.61.153Zm3.99,9.086a1.852,1.852,0,0,0,1.491-2.15h0a1.848,1.848,0,0,0-2.15-1.491l-3.365.609a1.851,1.851,0,0,0-1.491,2.15h0A1.849,1.849,0,0,0,204.5,133.7Zm-.823,9.911a1.85,1.85,0,0,0,2.181-1.441h0a1.848,1.848,0,0,0-1.444-2.181l-3.352-.683a1.847,1.847,0,0,0-2.181,1.444h0a1.851,1.851,0,0,0,1.444,2.181Zm-33.6-21.967a1.849,1.849,0,0,0,2.508.747h0a1.85,1.85,0,0,0,.744-2.508l-1.629-3.007a1.852,1.852,0,0,0-2.508-.744h0a1.848,1.848,0,0,0-.744,2.506Zm-6.643,5.242a1.851,1.851,0,0,0,2.61-.153h0a1.851,1.851,0,0,0-.153-2.612l-2.558-2.269a1.847,1.847,0,0,0-2.612.153h0a1.849,1.849,0,0,0,.156,2.61Zm-3.183,7.423a1.848,1.848,0,0,0,2.15-1.491h0a1.851,1.851,0,0,0-1.489-2.15l-3.368-.609a1.848,1.848,0,0,0-2.15,1.491h0a1.852,1.852,0,0,0,1.491,2.15Zm.81,8.621a1.851,1.851,0,0,0,1.444-2.181h0a1.847,1.847,0,0,0-2.181-1.444l-3.352.683a1.848,1.848,0,0,0-1.444,2.181h0a1.851,1.851,0,0,0,2.181,1.441Z" transform="translate(-158.731 -113.16)" fill="#fff"/>
          </g>
        </g>
        <g id="Graph" transform="translate(0 0)">
          <g id="Grupo_119311" data-name="Grupo 119311">
            <path id="Graph-2" data-name="Graph" d="M81.58,141.975V128.09a2.021,2.021,0,0,1,2.021-2.021H86.98A2.021,2.021,0,0,1,89,128.09v13.886A2.021,2.021,0,0,1,86.98,144H83.6A2.021,2.021,0,0,1,81.58,141.975Zm14.314-20.828a2.02,2.02,0,0,0-2.021,2.019v18.81A2.021,2.021,0,0,0,95.894,144h3.379a2.021,2.021,0,0,0,2.021-2.021v-18.81a2.02,2.02,0,0,0-2.021-2.019Zm12.293-4.227a2.021,2.021,0,0,0-2.021,2.021v23.034A2.021,2.021,0,0,0,108.187,144h3.379a2.021,2.021,0,0,0,2.021-2.021V118.941a2.021,2.021,0,0,0-2.021-2.021Zm12.32-4.353a2.02,2.02,0,0,0-2.021,2.019v27.39A2.021,2.021,0,0,0,120.507,144h3.379a2.021,2.021,0,0,0,2.021-2.021v-27.39a2.02,2.02,0,0,0-2.021-2.019ZM82.521,120.68a109.559,109.559,0,0,0,36.493-13.728l1.008,1.929,3.889-6.133-7.256-.3,1.092,2.084a106.843,106.843,0,0,1-35.675,13.455Zm52.289,27.23-6.255-3.611v2.244H78.327v-40.19H80.61l-3.65-6.32-3.65,6.32h2.283v42.924h52.962v2.244Z" transform="translate(-73.311 -100.032)" fill="#fff"/>
          </g>
        </g>
        <g id="People" transform="translate(74.32 149.257)">
          <g id="Grupo_119312" data-name="Grupo 119312">
            <path id="People-2" data-name="People" d="M158.829,211.109a18.341,18.341,0,0,1-3.6,1.23,61.9,61.9,0,0,1-13.16,1.211,61.894,61.894,0,0,1-13.158-1.211,18.313,18.313,0,0,1-3.6-1.23c-3.43-1.62-3.476-4.418-1.539-6.355a25.262,25.262,0,0,1,7.427-4.879c1.205-.559,2.46-1.02,3.7-1.505,2.306-.9,2.965-3.25,1.249-4.977a15.907,15.907,0,0,1-4.618-12.431c.19-4.958,3.094-7.593,7.66-8.717a11.293,11.293,0,0,1,5.759,0c4.566,1.124,7.47,3.759,7.662,8.717a15.817,15.817,0,0,1-4.62,12.431c-1.735,1.708-1.055,4.076,1.251,4.977,1.241.486,2.5.947,3.7,1.505a25.252,25.252,0,0,1,7.425,4.879A3.946,3.946,0,0,1,158.829,211.109Zm20.96-3.676a17.538,17.538,0,0,0-5.167-3.394c-.838-.388-1.712-.709-2.575-1.047-1.6-.628-2.075-2.275-.869-3.461a11,11,0,0,0,3.213-8.646c-.131-3.449-2.152-5.281-5.327-6.063a7.895,7.895,0,0,0-4.007,0c-3.175.782-5.194,2.615-5.327,6.063a11.06,11.06,0,0,0,3.213,8.646,2.023,2.023,0,0,1-.869,3.461l-.194.075q.372.335.723.686a5.35,5.35,0,0,1,1.366,4.585,5.55,5.55,0,0,1-3.3,4.051c-.45.213-.932.407-1.43.59a51.1,51.1,0,0,0,7.821.571,43.056,43.056,0,0,0,9.153-.842,12.761,12.761,0,0,0,2.5-.855A2.745,2.745,0,0,0,179.789,207.433Zm-59.911.861a5.208,5.208,0,0,1,1.637-4.541,20.569,20.569,0,0,1,1.672-1.491l-1.04-.4c-1.774-.694-2.3-2.519-.961-3.832a12.18,12.18,0,0,0,3.557-9.574c-.146-3.818-2.383-5.848-5.9-6.714a8.688,8.688,0,0,0-4.435,0c-3.517.865-5.754,2.9-5.9,6.714a12.25,12.25,0,0,0,3.557,9.574c1.322,1.328.813,3.138-.963,3.832-.955.375-1.922.73-2.85,1.159a19.4,19.4,0,0,0-5.719,3.759c-1.493,1.491-1.457,3.647,1.184,4.893a14.133,14.133,0,0,0,2.773.949,47.706,47.706,0,0,0,10.135.932,59.385,59.385,0,0,0,8.267-.567c-.5-.186-.986-.379-1.441-.594A5.833,5.833,0,0,1,119.877,208.294Z" transform="translate(-101.538 -171.872)" fill="#fff"/>
          </g>
        </g>
      </g>
      <path id="Trazado_173608" data-name="Trazado 173608" d="M14.344-8.751H6.528v4.928H15.76V0H1.558V-20.617H15.789v3.837H6.528v4.347h7.816ZM22.6,0H17.813V-21.75H22.6ZM49.66-6.981a7.529,7.529,0,0,1-1.161,3.8A7.008,7.008,0,0,1,45.518-.623a10.145,10.145,0,0,1-4.383.906,8.1,8.1,0,0,1-6.4-2.648Q32.4-5.013,32.4-9.841v-1.02a12.48,12.48,0,0,1,1.055-5.3,7.993,7.993,0,0,1,3.037-3.512,8.474,8.474,0,0,1,4.588-1.239,8.886,8.886,0,0,1,6.032,1.975A7.8,7.8,0,0,1,49.7-13.495H44.746a3.693,3.693,0,0,0-.949-2.7,3.9,3.9,0,0,0-2.719-.821,2.969,2.969,0,0,0-2.719,1.388,8.919,8.919,0,0,0-.906,4.432v1.458a9.869,9.869,0,0,0,.828,4.715,3.031,3.031,0,0,0,2.853,1.416,3.817,3.817,0,0,0,2.62-.807,3.426,3.426,0,0,0,.963-2.563ZM56.825,0H52.039V-21.75h4.786ZM64.8,0H60.011V-15.321H64.8ZM59.728-19.286a2.149,2.149,0,0,1,.736-1.681,2.768,2.768,0,0,1,1.912-.655,2.768,2.768,0,0,1,1.912.655,2.149,2.149,0,0,1,.736,1.681,2.149,2.149,0,0,1-.736,1.681,2.768,2.768,0,0,1-1.912.655,2.768,2.768,0,0,1-1.912-.655A2.149,2.149,0,0,1,59.728-19.286ZM75.148.283a7.876,7.876,0,0,1-5.707-2.1,7.261,7.261,0,0,1-2.181-5.473v-.4a9.409,9.409,0,0,1,.871-4.149,6.372,6.372,0,0,1,2.542-2.782,7.673,7.673,0,0,1,3.965-.984,6.632,6.632,0,0,1,5.1,2A7.874,7.874,0,0,1,81.6-8.015V-6.16H72.118a3.439,3.439,0,0,0,1.119,2.025,3.329,3.329,0,0,0,2.237.736,4.289,4.289,0,0,0,3.54-1.586l2.181,2.577A6.1,6.1,0,0,1,78.667-.446,8.542,8.542,0,0,1,75.148.283ZM74.61-11.923q-2.1,0-2.492,2.775h4.814v-.368a2.364,2.364,0,0,0-.581-1.777A2.31,2.31,0,0,0,74.61-11.923Zm13.3-3.4.156,1.8A5.2,5.2,0,0,1,92.438-15.6a4.371,4.371,0,0,1,3.575,1.43,6.809,6.809,0,0,1,1.225,4.3V0H92.452V-9.671a2.585,2.585,0,0,0-.467-1.706,2.162,2.162,0,0,0-1.7-.545,2.276,2.276,0,0,0-2.082,1.1V0H83.432V-15.321Zm17.53-3.809v3.809h2.521v3.313h-2.521V-5a1.79,1.79,0,0,0,.312,1.2,1.671,1.671,0,0,0,1.232.34,7,7,0,0,0,1.189-.085V-.127a8.807,8.807,0,0,1-2.69.411A5,5,0,0,1,101.84-.878,4.759,4.759,0,0,1,100.665-4.4v-7.6H98.71v-3.313h1.954V-19.13ZM117.246.283a7.876,7.876,0,0,1-5.707-2.1,7.261,7.261,0,0,1-2.181-5.473v-.4a9.409,9.409,0,0,1,.871-4.149,6.372,6.372,0,0,1,2.542-2.782,7.673,7.673,0,0,1,3.965-.984,6.632,6.632,0,0,1,5.1,2A7.874,7.874,0,0,1,123.7-8.015V-6.16h-9.487a3.439,3.439,0,0,0,1.119,2.025,3.329,3.329,0,0,0,2.237.736,4.289,4.289,0,0,0,3.54-1.586l2.181,2.577a6.1,6.1,0,0,1-2.528,1.961A8.542,8.542,0,0,1,117.246.283Zm-.538-12.206q-2.1,0-2.492,2.775h4.814v-.368a2.364,2.364,0,0,0-.581-1.777A2.31,2.31,0,0,0,116.708-11.923Z" transform="translate(160.689 310.87)" fill="#12263f"/>
      <path id="Trazado_173604" data-name="Trazado 173604" d="M14.344-8.751H6.528v4.928H15.76V0H1.558V-20.617H15.789v3.837H6.528v4.347h7.816ZM22.6,0H17.813V-21.75H22.6ZM48.314-16.78H42.126V0h-4.97V-16.78H31.082v-3.837H48.314ZM58.538-11l-1.572-.113q-2.251,0-2.889,1.416V0H49.306V-15.321H53.78l.156,1.968A3.7,3.7,0,0,1,57.292-15.6a4.653,4.653,0,0,1,1.331.17ZM65.292,0H60.506V-15.321h4.786ZM60.223-19.286a2.149,2.149,0,0,1,.736-1.681,2.768,2.768,0,0,1,1.912-.655,2.768,2.768,0,0,1,1.912.655,2.149,2.149,0,0,1,.736,1.681,2.149,2.149,0,0,1-.736,1.681,2.768,2.768,0,0,1-1.912.655,2.768,2.768,0,0,1-1.912-.655A2.149,2.149,0,0,1,60.223-19.286ZM76.861,0a5.388,5.388,0,0,1-.453-1.374A4.437,4.437,0,0,1,72.727.283a5.436,5.436,0,0,1-3.682-1.31A4.169,4.169,0,0,1,67.53-4.319a4.285,4.285,0,0,1,1.841-3.767A9.378,9.378,0,0,1,74.723-9.36H76.2v-.811q0-2.12-1.827-2.12a1.493,1.493,0,0,0-1.7,1.679H67.9a4.278,4.278,0,0,1,1.89-3.607A7.944,7.944,0,0,1,74.61-15.6a6.965,6.965,0,0,1,4.63,1.43,4.972,4.972,0,0,1,1.742,3.922v6.783a6.946,6.946,0,0,0,.651,3.229V0ZM73.874-3.115a2.662,2.662,0,0,0,1.48-.382,2.4,2.4,0,0,0,.843-.864v-2.45H74.808q-2.492,0-2.492,2.237a1.366,1.366,0,0,0,.439,1.055A1.589,1.589,0,0,0,73.874-3.115ZM75.063-21.75H80.1L76.167-17.3l-3.894-.007Zm12.942,6.429.156,1.8A5.2,5.2,0,0,1,92.537-15.6a4.371,4.371,0,0,1,3.575,1.43,6.809,6.809,0,0,1,1.225,4.3V0H92.551V-9.671a2.585,2.585,0,0,0-.467-1.706,2.162,2.162,0,0,0-1.7-.545,2.276,2.276,0,0,0-2.082,1.1V0H83.531V-15.321ZM99.418-7.774a10.345,10.345,0,0,1,.765-4.106,6.156,6.156,0,0,1,2.195-2.754,5.786,5.786,0,0,1,3.328-.97,4.6,4.6,0,0,1,3.738,1.614l.17-1.331h4.333V-.581a6.46,6.46,0,0,1-.942,3.519,6.042,6.042,0,0,1-2.726,2.294,10.019,10.019,0,0,1-4.135.8,8.644,8.644,0,0,1-3.264-.637,5.892,5.892,0,0,1-2.414-1.657l2-2.8a4.376,4.376,0,0,0,3.512,1.572q3.172,0,3.172-3.257v-.481A4.481,4.481,0,0,1,105.677.283a5.537,5.537,0,0,1-4.531-2.145A8.888,8.888,0,0,1,99.418-7.6Zm4.786.3a5.45,5.45,0,0,0,.708,2.981A2.234,2.234,0,0,0,106.9-3.4a2.535,2.535,0,0,0,2.251-1.034v-6.443a2.471,2.471,0,0,0-2.223-1.048,2.249,2.249,0,0,0-2,1.14A6.216,6.216,0,0,0,104.2-7.477Zm21.58,5.82a4.92,4.92,0,0,1-4.092,1.94,4.825,4.825,0,0,1-3.816-1.466,6.164,6.164,0,0,1-1.3-4.213v-9.926h4.772v9.955A1.715,1.715,0,0,0,123.264-3.4,2.494,2.494,0,0,0,125.6-4.574V-15.321h4.8V0h-4.475ZM138.047,0h-4.786V-21.75h4.786Zm2.336-7.8a9.043,9.043,0,0,1,.892-4.085,6.38,6.38,0,0,1,2.563-2.754,7.719,7.719,0,0,1,3.922-.963,7.045,7.045,0,0,1,5.423,2.131,8.178,8.178,0,0,1,1.982,5.8v.17a7.934,7.934,0,0,1-1.99,5.685,7.064,7.064,0,0,1-5.388,2.1,7.144,7.144,0,0,1-5.253-1.961A7.671,7.671,0,0,1,140.4-7Zm4.772.3a5.7,5.7,0,0,0,.666,3.115,2.217,2.217,0,0,0,1.968.991q2.549,0,2.605-3.922V-7.8q0-4.121-2.634-4.121-2.393,0-2.591,3.554ZM.736,24.226a9.359,9.359,0,0,1,1.572-5.735A5.174,5.174,0,0,1,6.7,16.4a4.4,4.4,0,0,1,3.455,1.614V10.25h4.786V32H10.648l-.241-1.643a4.519,4.519,0,0,1-3.738,1.926,5.164,5.164,0,0,1-4.333-2.1A9.656,9.656,0,0,1,.736,24.226Zm4.772.3q0,4.078,2.379,4.078a2.349,2.349,0,0,0,2.266-1.331V21.437a2.286,2.286,0,0,0-2.237-1.359q-2.209,0-2.393,3.568Zm19.555,7.76a7.876,7.876,0,0,1-5.707-2.1,7.261,7.261,0,0,1-2.181-5.473v-.4a9.409,9.409,0,0,1,.871-4.149,6.372,6.372,0,0,1,2.542-2.782,7.673,7.673,0,0,1,3.965-.984,6.632,6.632,0,0,1,5.1,2,7.874,7.874,0,0,1,1.869,5.586V25.84H22.033a3.439,3.439,0,0,0,1.119,2.025,3.329,3.329,0,0,0,2.237.736,4.289,4.289,0,0,0,3.54-1.586l2.181,2.577a6.1,6.1,0,0,1-2.528,1.961A8.542,8.542,0,0,1,25.063,32.283Zm-.538-12.206q-2.1,0-2.492,2.775h4.814v-.368a2.364,2.364,0,0,0-.581-1.777A2.31,2.31,0,0,0,24.525,20.077ZM38.473,32H33.687V10.25h4.786Zm18.182-4.3a1.1,1.1,0,0,0-.637-.977,9.692,9.692,0,0,0-2.421-.765,11.041,11.041,0,0,1-2.945-1.041,4.934,4.934,0,0,1-1.77-1.565,3.736,3.736,0,0,1-.609-2.11,4.235,4.235,0,0,1,1.742-3.476,7.175,7.175,0,0,1,4.56-1.366,7.949,7.949,0,0,1,4.871,1.374,4.3,4.3,0,0,1,1.841,3.611H56.5q0-1.841-1.94-1.841a1.923,1.923,0,0,0-1.26.418A1.293,1.293,0,0,0,52.789,21a1.187,1.187,0,0,0,.623,1.034,5.887,5.887,0,0,0,1.99.651,17.193,17.193,0,0,1,2.4.609q3.455,1.189,3.455,4.262a4.013,4.013,0,0,1-1.862,3.413,8.166,8.166,0,0,1-4.822,1.317,8.333,8.333,0,0,1-3.512-.708,5.872,5.872,0,0,1-2.407-1.926,4.361,4.361,0,0,1-.864-2.563h4.46a1.844,1.844,0,0,0,.708,1.551,2.912,2.912,0,0,0,1.742.489,2.291,2.291,0,0,0,1.466-.4A1.268,1.268,0,0,0,56.655,27.7ZM70.9,32.283a7.876,7.876,0,0,1-5.707-2.1,7.261,7.261,0,0,1-2.181-5.473v-.4a9.409,9.409,0,0,1,.871-4.149,6.372,6.372,0,0,1,2.542-2.782A7.673,7.673,0,0,1,70.39,16.4a6.632,6.632,0,0,1,5.1,2,7.874,7.874,0,0,1,1.869,5.586V25.84H67.87a3.439,3.439,0,0,0,1.119,2.025,3.329,3.329,0,0,0,2.237.736,4.289,4.289,0,0,0,3.54-1.586l2.181,2.577a6.1,6.1,0,0,1-2.528,1.961A8.542,8.542,0,0,1,70.9,32.283Zm-.538-12.206q-2.1,0-2.492,2.775h4.814v-.368a2.364,2.364,0,0,0-.581-1.777A2.31,2.31,0,0,0,70.362,20.077ZM88.543,21l-1.572-.113q-2.251,0-2.889,1.416V32H79.311V16.679h4.475l.156,1.968A3.7,3.7,0,0,1,87.3,16.4a4.653,4.653,0,0,1,1.331.17Zm8.085,5.324,2.421-9.643h5.027L99.079,32H94.208l-5-15.321H94.25ZM110.534,32h-4.786V16.679h4.786Zm-5.069-19.286a2.149,2.149,0,0,1,.736-1.681,3.116,3.116,0,0,1,3.823,0,2.287,2.287,0,0,1,0,3.362,3.116,3.116,0,0,1-3.823,0A2.149,2.149,0,0,1,105.465,12.714ZM119.951,28.6a2.122,2.122,0,0,0,1.558-.545,2,2,0,0,0,.538-1.522h4.475a5.3,5.3,0,0,1-1.805,4.135,6.716,6.716,0,0,1-4.652,1.614,6.8,6.8,0,0,1-5.268-2.1,8.257,8.257,0,0,1-1.926-5.806v-.2a9.332,9.332,0,0,1,.857-4.1,6.238,6.238,0,0,1,2.471-2.733,7.368,7.368,0,0,1,3.823-.956,6.631,6.631,0,0,1,4.744,1.657,5.876,5.876,0,0,1,1.756,4.489h-4.475a2.619,2.619,0,0,0-.581-1.827,2,2,0,0,0-1.558-.637q-1.855,0-2.167,2.365a16.687,16.687,0,0,0-.1,2.067,6.554,6.554,0,0,0,.552,3.2A1.912,1.912,0,0,0,119.951,28.6ZM133.573,32h-4.786V16.679h4.786ZM128.5,12.714a2.149,2.149,0,0,1,.736-1.681,3.116,3.116,0,0,1,3.823,0,2.287,2.287,0,0,1,0,3.362,3.116,3.116,0,0,1-3.823,0A2.149,2.149,0,0,1,128.5,12.714ZM135.909,24.2a9.043,9.043,0,0,1,.892-4.085,6.38,6.38,0,0,1,2.563-2.754,7.719,7.719,0,0,1,3.922-.963,7.045,7.045,0,0,1,5.423,2.131,8.178,8.178,0,0,1,1.982,5.8v.17a7.934,7.934,0,0,1-1.99,5.685,7.064,7.064,0,0,1-5.388,2.1,7.144,7.144,0,0,1-5.253-1.961A7.671,7.671,0,0,1,135.923,25Zm4.772.3a5.7,5.7,0,0,0,.666,3.115,2.217,2.217,0,0,0,1.968.991q2.549,0,2.605-3.922V24.2q0-4.121-2.634-4.121-2.393,0-2.591,3.554Z" transform="translate(-71.088 94.134)" fill="#12263f"/>
    </g>
  </g>
</svg>
