<svg xmlns="http://www.w3.org/2000/svg" width="57" height="57" viewBox="0 0 57 57">
  <g id="Grupo_120317" data-name="Grupo 120317" transform="translate(-523 -5796)">
    <rect id="Rectángulo_37088" data-name="Rectángulo 37088" width="57" height="57" transform="translate(523 5796)" fill="#f6ec05"/>
    <path id="Trazado_173640" data-name="Trazado 173640" d="M2.256,0V-29.859H12.981q5.763,0,8.767,2.112a7.028,7.028,0,0,1,3,6.132,7.1,7.1,0,0,1-1.066,3.958,6.214,6.214,0,0,1-3.138,2.42,6.293,6.293,0,0,1,3.589,2.3,6.678,6.678,0,0,1,1.251,4.1q0,4.389-2.779,6.593T14.376,0Zm7.2-12.694v7.157h4.717a4.486,4.486,0,0,0,2.994-.892,3.122,3.122,0,0,0,1.046-2.512q0-3.732-3.712-3.753Zm0-4.717h3.753a5.332,5.332,0,0,0,3.363-.864,3.065,3.065,0,0,0,1-2.489,3.219,3.219,0,0,0-1.087-2.725,5.818,5.818,0,0,0-3.507-.833H9.454ZM33.3-6.706a3.934,3.934,0,0,1,2.728.974A3.2,3.2,0,0,1,37.119-3.24,3.2,3.2,0,0,1,36.032-.749,3.934,3.934,0,0,1,33.3.226a3.9,3.9,0,0,1-2.738-.984A3.219,3.219,0,0,1,29.49-3.24a3.219,3.219,0,0,1,1.077-2.481A3.9,3.9,0,0,1,33.3-6.706Z" transform="translate(532 5839)" fill="#5c22c3"/>
  </g>
</svg>
